#!OML:ASF H:\Terrain\Patient Classification 1\Walking\liu\liu.ASF
:FULLY-SPECIFIED
:DEGREES
48
root 7.14566 16.2486 -25.7821 4.17549 1.02091 -4.93796
lowerback -4.32768 -0.223879 1.04305
upperback -1.12729 -0.407053 4.17337
thorax 1.29148 -0.202491 3.6923
lowerneck -24.0114 -2.43979 -10.7058
upperneck 22.0805 -2.01536 9.37454
head 11.3599 -0.615616 4.94796
rclavicle -5.00999e-015 4.21423e-014
rhumerus -34.8295 -1.9491 -78.5587
rradius 18.7333
rwrist 3.53046
rhand -27.1076 -24.5287
rfingers 7.12502
rthumb -0.524029 -54.5078
lclavicle -5.00999e-015 4.21423e-014
lhumerus -35.8954 -21.2942 98.6947
lradius 27.167
lwrist -0.600521
lhand -16.5898 -25.2828
lfingers 7.12502
lthumb 9.63109 4.47709
rfemur -11.5939 4.24726 30.4238
rtibia 27.7826
rfoot -17.1664 2.26648
rtoes -12.2475
lfemur -31.2325 13.8616 -17.4617
ltibia 70.2716
lfoot -10.9117 15.7083
ltoes -0.377582
49
root 7.16098 16.2515 -25.6037 4.30276 0.491439 -4.82222
lowerback -4.40181 -0.0135628 0.984005
upperback -1.05644 -0.128457 4.10857
thorax 1.38996 -0.0640919 3.67384
lowerneck -24.1969 -2.43469 -10.6704
upperneck 22.1149 -1.99711 9.35342
head 11.405 -0.603899 4.94064
rclavicle 3.721e-015 -2.22639e-014
rhumerus -33.9363 0.645292 -79.9876
rradius 19.7071
rwrist 1.98108
rhand -27.6899 -24.4106
rfingers 7.12502
rthumb -1.0864 -54.3876
lclavicle 3.721e-015 -2.22639e-014
lhumerus -35.7559 -19.0515 97.4156
lradius 27.5836
lwrist 2.3695
lhand -10.8627 -23.6002
lfingers 7.12502
lthumb 15.1528 5.82501
rfemur -10.8932 4.4881 30.2869
rtibia 27.5797
rfoot -17.4634 2.47574
rtoes -9.95342
lfemur -32.5746 14.0877 -18.053
ltibia 69.0923
lfoot -11.7035 15.5101
ltoes -3.80001
50
root 7.17476 16.2376 -25.4329 4.46509 -0.137288 -5.14961
lowerback -4.36068 0.283111 1.32269
upperback -1.06474 0.252399 4.21192
thorax 1.3377 0.127654 3.61059
lowerneck -24.1682 -2.59248 -11.0965
upperneck 21.9611 -2.08638 9.47067
head 11.3593 -0.664916 5.0369
rclavicle -2.21148e-015 7.15625e-015
rhumerus -33.1986 2.82832 -80.9306
rradius 20.6615
rwrist 0.9196
rhand -27.6928 -24.963
rfingers 7.12502
rthumb -1.08921 -54.94
lclavicle -2.21148e-015 7.15625e-015
lhumerus -36.461 -18.7191 97.5223
lradius 26.5552
lwrist 1.65517
lhand -2.68814 -18.7125
lfingers 7.12502
lthumb 23.0132 9.93365
rfemur -10.2756 4.65128 30.658
rtibia 27.2557
rfoot -17.6802 2.75114
rtoes -9.72862
lfemur -33.9447 14.5491 -18.0669
ltibia 67.7657
lfoot -12.844 14.7989
ltoes -4.20491
51
root 7.187 16.2239 -25.2538 4.48803 -0.386603 -5.50164
lowerback -4.20234 0.441887 1.62567
upperback -1.06745 0.456083 4.32272
thorax 1.23691 0.230599 3.56389
lowerneck -24.2611 -2.68476 -11.3943
upperneck 21.9179 -2.11457 9.55668
head 11.3689 -0.690145 5.11542
rclavicle 2.43263e-014 3.18055e-015
rhumerus -32.5168 5.07832 -81.8206
rradius 21.4312
rwrist -0.251399
rhand -28.7738 -24.3415
rfingers 7.12502
rthumb -2.13324 -54.3106
lclavicle 2.43263e-014 3.18055e-015
lhumerus -37.273 -18.3692 97.5676
lradius 25.8128
lwrist 1.49217
lhand -0.116978 -17.152
lfingers 7.12502
lthumb 25.4783 11.1648
rfemur -9.38471 4.43197 31.1043
rtibia 26.8025
rfoot -17.8081 2.92133
rtoes -10.7326
lfemur -35.0419 14.5633 -17.8957
ltibia 66.1588
lfoot -13.2666 14.4148
ltoes -1.75205
52
root 7.19963 16.2265 -25.0673 4.36775 -0.655074 -5.62065
lowerback -3.92361 0.604066 1.75091
upperback -1.03679 0.678774 4.28948
thorax 1.10314 0.342465 3.46622
lowerneck -24.3255 -2.7109 -11.3207
upperneck 21.8536 -2.16357 9.53883
head 11.3619 -0.705968 5.08622
rclavicle -1.44554e-014 -3.49861e-014
rhumerus -31.9109 7.28423 -82.7924
rradius 22.204
rwrist -1.95666
rhand -21.5919 -34.1945
rfingers 7.12502
rthumb 4.80284 -64.12
lclavicle -1.44554e-014 -3.49861e-014
lhumerus -38.3127 -17.7629 97.3152
lradius 25.6819
lwrist 1.23627
lhand -0.37574 -17.5498
lfingers 7.12502
lthumb 25.2304 10.8022
rfemur -8.19849 4.24919 31.2668
rtibia 26.2651
rfoot -17.7023 2.88704
rtoes -11.4282
lfemur -35.8267 14.4601 -17.9302
ltibia 64.2518
lfoot -13.4387 14.4159
ltoes -2.41401
53
root 7.21112 16.2288 -24.8921 4.25407 -0.999352 -5.67383
lowerback -3.53753 0.774822 1.80677
upperback -0.994911 0.920842 4.22569
thorax 0.92053 0.463831 3.37343
lowerneck -24.4293 -2.77183 -11.2088
upperneck 21.7577 -2.27717 9.54589
head 11.3583 -0.743366 5.04871
rclavicle 2.29845e-015 2.70347e-014
rhumerus -31.3017 9.54673 -83.8289
rradius 22.9069
rwrist -4.64546
rhand -31.2105 -16.2179
rfingers 7.12502
rthumb -4.48642 -46.1504
lclavicle 2.29845e-015 2.70347e-014
lhumerus -39.2348 -17.1445 96.9566
lradius 25.4663
lwrist 0.935553
lhand -3.37178 -19.7731
lfingers 7.12502
lthumb 22.3571 8.95332
rfemur -7.07213 4.08962 31.3404
rtibia 25.6902
rfoot -17.7416 2.82469
rtoes -12.807
lfemur -36.5338 14.4305 -18.0115
ltibia 62.0827
lfoot -13.6835 14.0866
ltoes -4.9642
54
root 7.22205 16.2297 -24.7167 4.2942 -1.19374 -5.60999
lowerback -3.47221 0.882052 1.70209
upperback -0.921666 1.06715 4.23502
thorax 0.950508 0.536699 3.44792
lowerneck -24.346 -2.85393 -11.407
upperneck 21.5043 -2.33375 9.6179
head 11.2584 -0.774831 5.08952
rclavicle 1.94747e-014 -4.05521e-014
rhumerus -30.3002 10.9249 -83.9573
rradius 24.1189
rwrist -3.60865
rhand -27.4824 -22.7105
rfingers 7.12502
rthumb -0.886005 -52.6885
lclavicle 1.94747e-014 -4.05521e-014
lhumerus -39.9199 -16.4671 96.7082
lradius 25.0051
lwrist 0.722986
lhand -11.6792 -25.3501
lfingers 7.12502
lthumb 14.3661 4.13282
rfemur -6.14694 3.9099 31.2765
rtibia 25.085
rfoot -17.8065 2.87114
rtoes -12.7263
lfemur -37.2277 14.1884 -18.1915
ltibia 59.6423
lfoot -14.0517 13.4625
ltoes -6.57442
55
root 7.23076 16.2313 -24.5382 4.48365 -1.42747 -5.52429
lowerback -3.64996 0.923163 1.46757
upperback -0.84618 1.11855 4.30845
thorax 1.11922 0.561263 3.66346
lowerneck -24.1321 -2.8878 -11.8437
upperneck 20.9843 -2.26947 9.81876
head 11.0249 -0.753588 5.22748
rclavicle 7.85199e-015 -1.90833e-014
rhumerus -29.4178 13.1993 -84.3526
rradius 24.922
rwrist -4.17054
rhand -26.4623 -24.2719
rfingers 7.12502
rthumb 0.0992366 -54.2516
lclavicle 7.85199e-015 -1.90833e-014
lhumerus -40.4384 -15.3666 96.2503
lradius 24.5106
lwrist 0.357305
lhand -15.1676 -26.4278
lfingers 7.12502
lthumb 11.0031 3.26385
rfemur -5.31434 4.12378 31.187
rtibia 24.4296
rfoot -17.7217 2.80056
rtoes -11.4482
lfemur -37.9576 13.9124 -18.3802
ltibia 56.9755
lfoot -14.3735 13.0542
ltoes -6.60879
